<?xml version="1.0" encoding="UTF-8" standalone="no"?><svg xmlns="http://www.w3.org/2000/svg" xmlns:xlink="http://www.w3.org/1999/xlink" contentScriptType="text/ecmascript" fill="#535454" width="439" zoomAndPan="magnify" contentStyleType="text/css" viewBox="30.6 30.6 438.8 438.8" height="439" data-name="Layer 1" preserveAspectRatio="xMidYMid meet" version="1"><g id="change1_1"><path d="M441.97 195.15L441.97 222.57 441.97 250 441.97 277.43 441.97 304.85 469.4 304.85 469.4 277.43 469.4 250 469.4 222.57 469.4 195.15 441.97 195.15z"/></g><g id="change1_2"><path d="M414.55 332.27L414.55 359.7 441.97 359.7 441.97 332.27 441.97 304.85 414.55 304.85 414.55 332.27z"/></g><g id="change1_3"><path d="M414.55 195.15L441.97 195.15 441.97 167.72 441.97 140.3 414.55 140.3 414.55 167.72 414.55 195.15z"/></g><g id="change1_4"><path d="M387.13 359.7H414.55V387.13H387.13z"/></g><g id="change1_5"><path d="M387.13 112.87H414.55V140.3H387.13z"/></g><g id="change1_6"><path d="M359.7 387.13H387.13V414.55H359.7z"/></g><g id="change1_7"><path d="M359.7 85.45H387.13V112.87H359.7z"/></g><g id="change1_8"><path d="M304.85 414.55L304.85 441.97 277.43 441.97 250 441.97 222.58 441.97 195.15 441.97 195.15 469.4 222.58 469.4 250 469.4 277.43 469.4 304.85 469.4 332.27 469.4 332.27 441.97 359.7 441.97 359.7 414.55 332.27 414.55 304.85 414.55z"/></g><g id="change1_9"><path d="M332.27 85.45L359.7 85.45 359.7 58.02 332.27 58.02 304.85 58.02 304.85 85.45 332.27 85.45z"/></g><g id="change1_10"><path d="M250 58.02L277.43 58.02 304.85 58.02 304.85 30.6 277.43 30.6 250 30.6 222.58 30.6 195.15 30.6 195.15 58.02 222.58 58.02 250 58.02z"/></g><g id="change1_11"><path d="M167.73 414.55L140.3 414.55 140.3 441.97 167.73 441.97 195.15 441.97 195.15 414.55 167.73 414.55z"/></g><g id="change1_12"><path d="M195.15 85.45L195.15 58.02 167.73 58.02 140.3 58.02 140.3 85.45 167.73 85.45 195.15 85.45z"/></g><g id="change1_13"><path d="M112.88 387.13H140.3V414.55H112.88z"/></g><g id="change1_14"><path d="M112.88 85.45H140.3V112.87H112.88z"/></g><g id="change1_15"><path d="M85.45 359.7H112.88V387.13H85.45z"/></g><g id="change1_16"><path d="M85.45 112.87H112.88V140.3H85.45z"/></g><g id="change1_17"><path d="M85.45 304.85L58.03 304.85 58.03 332.27 58.03 359.7 85.45 359.7 85.45 332.27 85.45 304.85z"/></g><g id="change1_18"><path d="M85.45 167.72L85.45 140.3 58.03 140.3 58.03 167.72 58.03 195.15 85.45 195.15 85.45 167.72z"/></g><g id="change1_19"><path d="M58.03 250L58.03 222.57 58.03 195.15 30.6 195.15 30.6 222.57 30.6 250 30.6 277.43 30.6 304.85 58.03 304.85 58.03 277.43 58.03 250z"/></g></svg>