<?xml version="1.0" encoding="UTF-8" standalone="no"?><svg xmlns="http://www.w3.org/2000/svg" xmlns:xlink="http://www.w3.org/1999/xlink" contentScriptType="text/ecmascript" fill="#000000" width="170.6" zoomAndPan="magnify" contentStyleType="text/css" viewBox="264.7 220.6 170.6 402.1" height="402.1" data-name="Layer 1" preserveAspectRatio="xMidYMid meet" version="1"><g id="change1_1"><path fill="#535454" d="M416.23,286.72h0a19.1,19.1,0,0,0-19.11,19.08l-.21,105.8a63.34,63.34,0,0,1-3.45,17.84,92.8,92.8,0,0,1-4.24,8.4,14,14,0,0,0-1,1.1,29.48,29.48,0,0,1-10,7.92,43.67,43.67,0,0,1-9.1,3.26V239.64a19.12,19.12,0,0,0-38.24,0V392.07l-17-17a32.23,32.23,0,0,1-7.11-11.32,62.6,62.6,0,0,1-3.63-18.34l-.21-72.71a19.12,19.12,0,0,0-19.11-19.07h-.05a19.12,19.12,0,0,0-19.07,19.17l.21,73.35c0,.35,0,.7,0,1.07a101.22,101.22,0,0,0,6.14,30.25,70.12,70.12,0,0,0,15.77,24.63l44,44.05V603.7a19.12,19.12,0,0,0,38.24,0V489.06a87.91,87.91,0,0,0,26.2-8,67.53,67.53,0,0,0,21.68-17,28.45,28.45,0,0,0,2.75-3.22c2.3-3.15,5.14-8.39,8.68-16,.18-.38.34-.77.5-1.17a101.22,101.22,0,0,0,6.14-30.25c0-.36,0-.72,0-1.09l.21-106.44A19.14,19.14,0,0,0,416.23,286.72Z"/></g></svg>