<?xml version="1.0" encoding="UTF-8" standalone="no"?><svg xmlns="http://www.w3.org/2000/svg" xmlns:xlink="http://www.w3.org/1999/xlink" contentScriptType="text/ecmascript" fill="#000000" width="500" zoomAndPan="magnify" contentStyleType="text/css" viewBox="0.0 0.0 500.0 75.0" height="75" preserveAspectRatio="xMidYMid meet" version="1"><g><g fill="#535454" id="change5_1"><path d="M240 5H250V10H240z"/><path d="M225 15H230V20H225z"/><path d="M215 0H225V5H215z"/><path d="M195 20H205V25H195z"/><path d="M210 15H215V20H210z"/><path d="M245 20H255V25H245z"/><path d="M275 20H285V25H275z"/><path d="M295 15H305V20H295z"/><path d="M275 10H285V15H275z"/><path d="M320 15H330V20H320z"/><path d="M335 20H340V25H335z"/><path d="M355 30H360V35H355z"/><path d="M365 10H375V15H365z"/><path d="M370 0H375V5H370z"/><path d="M380 35H390V40H380z"/><path d="M410 20H415V25H410z"/><path d="M160 35H175V40H160z"/><path d="M155 25H160V30H155z"/><path d="M105 20H115V25H105z"/><path d="M120 45H125V50H120z"/><path d="M70 15H85V20H70z"/><path d="M40 25H50V30H40z"/><path d="M40 5H50V10H40z"/><path d="M55 15H60V20H55z"/><path d="M35 40H40V45H35z"/><path d="M20 30H25V35H20z"/><path d="M15 20H20V25H15z"/><path d="M450 20H460V25H450z"/><path d="M475 5H480V10H475z"/><path d="M470 25H475V30H470z"/><path d="M485 15H495V20H485z"/><path d="M485 30H495V35H485z"/><path d="M430 30H440V35H430z"/><path d="M95 35H100V40H95z"/><path d="M135 15H145V20H135z"/></g></g></svg>