<?xml version="1.0" encoding="UTF-8" standalone="no"?>
<svg xmlns="http://www.w3.org/2000/svg" width="1298.73" height="50" viewBox="181.9 460 1298.73 50" preserveAspectRatio="none" version="1">
  <g fill="#535454">
    <!-- Continuous line -->
    <path d="M1381.9,506 H181.9 v-8 h1200 z"/>
    <!-- Bump from image10 (top 4 steps) -->
    <g transform="translate(1356.265, 463.91) scale(0.3)">
      <path d="M250 58.02L277.43 58.02 304.85 58.02 304.85 30.6 277.43 30.6 250 30.6 222.58 30.6 195.15 30.6 195.15 58.02 222.58 58.02 250 58.02z"/>
      <path d="M332.27 85.45L359.7 85.45 359.7 58.02 332.27 58.02 304.85 58.02 304.85 85.45 332.27 85.45z"/>
      <path d="M195.15 85.45L195.15 58.02 167.73 58.02 140.3 58.02 140.3 85.45 167.73 85.45 195.15 85.45z"/>
      <path d="M387.13 112.87H359.7V85.45H387.13z"/>
      <path d="M140.3 112.87H112.88V85.45H140.3z"/>
      <path d="M414.55 140.3H387.13V112.87H414.55z"/>
      <path d="M112.88 140.3H85.45V112.87H112.88z"/>
    </g>
  </g>
</svg>
