<?xml version="1.0" encoding="UTF-8" standalone="no"?><svg xmlns="http://www.w3.org/2000/svg" xmlns:xlink="http://www.w3.org/1999/xlink" contentScriptType="text/ecmascript" fill="#000000" width="166.9" zoomAndPan="magnify" contentStyleType="text/css" viewBox="0.0 0.0 166.9 47.2" height="47.2" data-name="Layer 1" preserveAspectRatio="xMidYMid meet" version="1"><g id="change1_1"><path fill="#535454" d="M3.63 39.9L3.63 43.53 0 43.53 0 47.16 3.63 47.16 7.25 47.16 7.25 43.53 10.88 43.53 10.88 39.9 7.25 39.9 3.63 39.9z"/></g><g id="change1_2"><path fill="#535454" d="M163.26 32.65L159.63 32.65 156 32.65 156 29.02 156 25.39 152.38 25.39 148.75 25.39 145.12 25.39 145.12 21.76 145.12 18.14 141.49 18.14 137.87 18.14 134.24 18.14 130.61 18.14 126.99 18.14 126.99 14.51 123.36 14.51 119.73 14.51 116.1 14.51 116.1 10.88 116.1 7.25 112.48 7.25 112.48 3.63 108.85 3.63 105.22 3.63 105.22 0 101.59 0 97.97 0 94.34 0 90.71 0 90.71 3.63 87.09 3.63 83.46 3.63 79.83 3.63 76.2 3.63 72.58 3.63 72.58 7.25 68.95 7.25 68.95 10.88 65.32 10.88 61.69 10.88 61.69 14.51 61.69 18.14 61.69 21.76 58.07 21.76 54.44 21.76 50.81 21.76 50.81 25.39 47.18 25.39 47.18 29.02 43.56 29.02 39.93 29.02 36.3 29.02 32.68 29.02 29.05 29.02 25.42 29.02 21.79 29.02 21.79 32.65 18.17 32.65 18.17 36.27 18.17 39.9 14.54 39.9 14.54 43.53 18.17 43.53 21.79 43.53 21.79 39.9 21.79 36.27 25.42 36.27 25.42 32.65 29.05 32.65 32.68 32.65 36.3 32.65 39.93 32.65 43.56 32.65 47.18 32.65 50.81 32.65 50.81 29.02 54.44 29.02 54.44 25.39 58.07 25.39 61.69 25.39 65.32 25.39 65.32 21.76 65.32 18.14 65.32 14.51 68.95 14.51 72.58 14.51 72.58 10.88 76.2 10.88 76.2 7.25 79.83 7.25 83.46 7.25 87.09 7.25 90.71 7.25 94.34 7.25 94.34 3.63 97.97 3.63 101.59 3.63 101.59 7.25 105.22 7.25 108.85 7.25 108.85 10.88 112.48 10.88 112.48 14.51 112.48 18.14 112.48 21.75 108.87 21.75 108.87 25.38 112.49 25.38 112.49 21.76 116.1 21.76 116.1 18.14 119.73 18.14 123.36 18.14 123.36 21.76 126.99 21.76 130.61 21.76 134.24 21.76 137.87 21.76 141.49 21.76 141.49 25.39 141.49 29.02 145.12 29.02 148.75 29.02 152.38 29.02 152.38 32.65 152.38 36.27 156 36.27 159.63 36.27 159.63 39.9 163.26 39.9 163.26 36.27 163.26 32.65z"/></g><g id="change1_3"><path fill="#535454" d="M163.26 39.9L163.26 43.53 159.63 43.53 156 43.53 152.38 43.53 148.75 43.53 145.12 43.53 141.49 43.53 137.87 43.53 134.24 43.53 130.61 43.53 126.99 43.53 123.36 43.53 119.73 43.53 116.1 43.53 112.48 43.53 108.85 43.53 105.22 43.53 101.59 43.53 97.97 43.53 94.34 43.53 90.71 43.53 87.09 43.53 83.46 43.53 79.83 43.53 76.2 43.53 72.58 43.53 68.95 43.53 65.32 43.53 61.69 43.53 58.07 43.53 54.44 43.53 50.81 43.53 47.18 43.53 43.56 43.53 39.93 43.53 36.3 43.53 36.3 47.16 39.93 47.16 43.56 47.16 47.18 47.16 50.81 47.16 54.44 47.16 58.07 47.16 61.69 47.16 65.32 47.16 68.95 47.16 72.58 47.16 76.2 47.16 79.83 47.16 83.46 47.16 87.09 47.16 90.71 47.16 94.34 47.16 97.97 47.16 101.59 47.16 105.22 47.16 108.85 47.16 112.48 47.16 116.1 47.16 119.73 47.16 123.36 47.16 126.99 47.16 130.61 47.16 134.24 47.16 137.87 47.16 141.49 47.16 145.12 47.16 148.75 47.16 152.38 47.16 156 47.16 159.63 47.16 163.26 47.16 166.89 47.16 166.89 43.53 166.89 39.9 163.26 39.9z"/></g><g id="change1_4"><path fill="#535454" d="M32.68 39.9H36.31V43.53H32.68z"/></g></svg>